<svg xmlns="http://www.w3.org/2000/svg" xmlns:xlink="http://www.w3.org/1999/xlink" viewBox="0 0 53.24 76.66">
  <defs>
    <clipPath id="a">
      <path d="M22.71,1.88a13.34,13.34,0,0,1,10.39.3C44.36,7.08,51.36,34,52.12,43.36c.1,1.21.15,2.4.15,3.56,0,11.32-4.58,20.41-12.86,25.29a25.52,25.52,0,0,1-27-.77C3.63,65.55-.41,54.79,1.38,41.91h0c1.3-9.34,9.82-35.78,21.33-40Zm1.85,4.71-.08,0c-3.55,1.29-7.76,6.84-11.56,15.21A86.21,86.21,0,0,0,6.4,42.61h0A38.84,38.84,0,0,0,6,47.95c0,11.26,5.58,16.84,9.24,19.28a20.43,20.43,0,0,0,21.59.62c4.35-2.56,11.46-9.09,10.24-24.07a86.23,86.23,0,0,0-5.34-21.11C38.42,14.08,34.53,8.3,31.07,6.81l-.07,0a8.31,8.31,0,0,0-6.43-.18Zm1.21,26-.08,0C23,33.75,19.84,38.19,19,44.51A20.11,20.11,0,0,0,18.87,47c0,4,1.37,7.21,3.89,8.89a6.79,6.79,0,0,0,7.22.21c3.14-1.83,4.74-5.91,4.37-11.18-.44-6.36-3.34-11-6-12.24l-.08,0a2.94,2.94,0,0,0-2.53-.07Zm0,0" style="fill: #363636;clip-rule: evenodd"/>
    </clipPath>
  </defs>
  <title>feedr-icon-colour</title>
  <g>
    <path d="M22.71,1.88a13.34,13.34,0,0,1,10.39.3C44.36,7.08,51.36,34,52.12,43.36c.1,1.21.15,2.4.15,3.56,0,11.32-4.58,20.41-12.86,25.29a25.52,25.52,0,0,1-27-.77C3.63,65.55-.41,54.79,1.38,41.91h0c1.3-9.34,9.82-35.78,21.33-40Zm1.85,4.71-.08,0c-3.55,1.29-7.76,6.84-11.56,15.21A86.21,86.21,0,0,0,6.4,42.61h0A38.84,38.84,0,0,0,6,47.95c0,11.26,5.58,16.84,9.24,19.28a20.43,20.43,0,0,0,21.59.62c4.35-2.56,11.46-9.09,10.24-24.07a86.23,86.23,0,0,0-5.34-21.11C38.42,14.08,34.53,8.3,31.07,6.81l-.07,0a8.31,8.31,0,0,0-6.43-.18Zm1.21,26-.08,0C23,33.75,19.84,38.19,19,44.51A20.11,20.11,0,0,0,18.87,47c0,4,1.37,7.21,3.89,8.89a6.79,6.79,0,0,0,7.22.21c3.14-1.83,4.74-5.91,4.37-11.18-.44-6.36-3.34-11-6-12.24l-.08,0a2.94,2.94,0,0,0-2.53-.07Zm0,0" style="fill: #363636;fill-rule: evenodd"/>
    <g style="clip-path: url(#a)">
      <rect width="53.24" height="76.66" style="fill: #363636"/>
    </g>
  </g>
</svg>
